<?xml version="1.0" standalone="no"?>
<!DOCTYPE svg PUBLIC "-//W3C//DTD SVG 20010904//EN"
 "http://www.w3.org/TR/2001/REC-SVG-20010904/DTD/svg10.dtd">
<svg version="1.0" xmlns="http://www.w3.org/2000/svg"
 width="1280.000000pt" height="906.000000pt" viewBox="0 0 1280.000000 906.000000"
 preserveAspectRatio="xMidYMid meet">
<metadata>
Created by potrace 1.15, written by Peter Selinger 2001-2017
</metadata>
<g transform="translate(0.000000,906.000000) scale(0.100000,-0.100000)"
fill="#000000" stroke="none">
<path d="M3363 8814 c3 -4 2062 -7 4576 -7 2513 0 4575 -3 4583 -8 11 -7 13
-716 13 -4243 0 -2329 3 -4238 7 -4242 5 -4 7 1907 5 4247 l-2 4254 -4594 3
c-2527 1 -4592 -1 -4588 -4z"/>
<path d="M1520 8533 c-70 -24 -93 -26 -321 -32 -241 -6 -246 -6 -282 -31 -67
-46 -67 -43 -67 -591 0 -522 1 -530 50 -579 11 -11 32 -25 46 -30 15 -6 272
-10 641 -10 612 0 615 0 654 22 76 42 74 29 74 604 l0 510 -25 37 c-40 59 -74
67 -278 67 -191 0 -252 -10 -340 -54 -26 -13 -64 -26 -85 -30 -21 -4 -35 -11
-32 -17 9 -14 47 -11 96 7 103 37 228 53 385 48 84 -2 164 -8 178 -14 55 -20
56 -35 56 -561 0 -411 -2 -486 -15 -513 -30 -63 -29 -62 -560 -60 -264 2 -536
3 -604 4 l-123 0 -34 34 -34 34 0 496 c0 335 4 503 11 519 22 49 53 57 234 58
239 0 306 10 399 56 70 34 94 54 64 52 -7 -1 -47 -12 -88 -26z"/>
<path d="M11620 8310 c-37 -73 -38 -90 -5 -90 29 0 45 -28 24 -41 -31 -19 -50
-9 -69 37 -17 39 -23 44 -42 38 -36 -10 -48 -24 -48 -54 0 -45 25 -58 110 -54
41 2 80 3 85 3 6 0 88 -2 182 -3 191 -4 205 0 187 52 -7 20 -17 28 -41 30 -33
3 -43 20 -43 74 0 15 -5 30 -11 34 -23 14 -27 -13 -13 -79 8 -38 12 -73 8 -78
-11 -18 -34 -9 -48 20 -27 52 -70 55 -87 6 -7 -19 -19 -35 -26 -35 -14 0 -43
89 -43 132 0 26 -23 48 -36 36 -3 -3 2 -38 10 -78 9 -40 13 -77 9 -83 -8 -13
-33 21 -33 44 0 10 -12 21 -30 27 l-29 11 25 46 c23 44 24 65 4 65 -6 0 -23
-27 -40 -60z"/>
<path d="M10644 8313 c3 -15 9 -55 12 -88 l6 -60 -21 33 c-21 33 -41 35 -41 4
0 -13 -2 -13 -15 4 -13 16 -16 17 -26 4 -8 -11 -12 -12 -16 -2 -8 21 -33 13
-33 -11 0 -13 -3 -27 -7 -30 -11 -11 -33 14 -33 38 0 40 -11 55 -39 55 -37 0
-71 -26 -71 -55 0 -17 4 -23 14 -19 8 3 17 1 21 -5 4 -7 -4 -11 -20 -11 -20 0
-28 7 -37 30 -12 37 -35 51 -65 39 -18 -6 -23 -16 -23 -43 0 -19 5 -38 10 -41
8 -5 8 -11 0 -20 -9 -10 -7 -16 9 -24 30 -16 48 -13 71 12 20 21 28 22 183 22
l162 0 3 40 c1 22 -1 65 -5 95 -6 42 -13 56 -27 58 -16 3 -18 0 -12 -25z"/>
<path d="M11280 8323 c0 -10 7 -47 15 -82 9 -35 13 -66 11 -69 -12 -11 -36 10
-36 32 0 41 -11 56 -39 56 -36 0 -84 -40 -75 -63 4 -12 13 -16 25 -12 11 4 19
2 19 -4 0 -6 -14 -11 -30 -11 -23 0 -33 6 -40 25 -10 27 -40 35 -40 11 0 -8 5
-27 11 -43 8 -23 7 -30 -7 -40 -13 -10 -15 -16 -7 -24 9 -9 19 -4 39 17 27 26
34 28 114 28 l85 1 3 40 c5 56 -17 155 -34 155 -8 0 -14 -8 -14 -17z"/>
<path d="M1445 8261 c-18 -7 -20 -20 -25 -162 l-5 -154 -42 -3 c-35 -3 -44 1
-58 21 -8 13 -13 31 -9 40 8 22 -13 57 -34 57 -26 0 -42 -20 -42 -53 0 -49
-16 -67 -60 -67 -21 0 -42 6 -47 13 -4 6 -10 77 -13 157 l-5 145 -38 3 -39 3
4 -173 c2 -140 6 -179 20 -204 31 -56 120 -71 180 -30 l36 24 21 -21 c28 -28
129 -31 158 -4 24 21 33 21 49 0 11 -16 37 -18 281 -18 248 0 270 1 300 20 60
36 81 119 42 169 -41 52 -70 59 -248 60 -113 1 -166 5 -168 12 -2 7 21 26 52
43 47 27 55 35 55 61 0 40 -2 45 -21 43 -28 -4 -209 -118 -215 -136 -9 -27 14
-82 39 -95 14 -8 97 -13 231 -15 185 -2 210 -4 220 -19 24 -39 -1 -43 -279
-43 -145 0 -267 4 -272 8 -4 5 -9 77 -11 160 -4 167 -7 177 -57 158z"/>
<path d="M10872 8248 c-31 -15 -38 -52 -17 -84 13 -20 22 -24 40 -20 13 3 37
3 53 0 25 -5 31 -12 34 -37 2 -17 9 -33 17 -35 11 -4 13 2 8 27 -6 27 -3 33
18 41 20 8 25 16 25 45 0 26 -4 35 -16 35 -12 0 -15 -7 -12 -25 3 -16 1 -25
-7 -25 -7 0 -16 11 -19 25 -8 33 -36 33 -36 -1 0 -36 -17 -21 -30 26 -11 42
-20 46 -58 28z"/>
<path d="M10670 7901 c0 -5 7 -42 15 -82 9 -40 13 -74 10 -77 -8 -8 -35 19
-35 35 0 23 -25 9 -28 -16 -3 -22 -5 -21 -37 14 -27 29 -39 35 -57 30 -62 -19
-78 -85 -34 -140 21 -26 25 -28 31 -12 4 10 0 28 -9 42 -22 34 -20 53 3 29 16
-18 30 -20 97 -18 44 1 81 3 84 4 3 2 66 3 140 4 l135 1 3 45 c5 60 -17 150
-36 150 -15 0 -15 2 8 -109 13 -63 6 -76 -22 -38 -21 29 -38 28 -38 -4 0 -10
-7 -19 -15 -19 -10 0 -15 11 -15 35 0 32 2 35 29 35 31 0 49 14 32 24 -17 11
-119 -6 -150 -25 -22 -13 -28 -23 -24 -39 3 -11 11 -19 19 -18 7 2 12 -1 11
-7 -1 -5 -10 -11 -20 -12 -22 -4 -47 50 -56 122 -4 36 -11 51 -23 53 -10 2
-18 -1 -18 -7z"/>
<path d="M11467 7803 c-2 -5 -7 -21 -11 -38 -4 -16 -19 -45 -33 -63 -23 -30
-24 -35 -10 -49 13 -14 18 -10 41 29 14 25 26 52 26 61 0 10 4 17 9 17 11 0
25 -36 26 -65 0 -27 54 -34 72 -9 18 24 16 75 -3 102 -19 28 -74 31 -74 5 -1
-17 -1 -17 -14 0 -14 18 -22 21 -29 10z"/>
<path d="M1203 7768 c-6 -7 -11 -62 -11 -122 -1 -64 -7 -114 -13 -122 -14 -18
-73 -18 -87 -1 -6 7 -12 33 -14 57 -2 37 -6 45 -23 45 -18 0 -20 -6 -19 -67 1
-81 17 -104 79 -114 49 -7 96 14 113 51 12 27 19 255 9 273 -10 15 -22 15 -34
0z"/>
<path d="M1300 7670 c-25 -25 -27 -91 -4 -114 8 -9 29 -16 45 -16 18 0 29 -5
29 -14 0 -14 -29 -26 -67 -26 -18 0 -23 -6 -23 -24 0 -47 59 -49 105 -3 74 74
50 217 -37 217 -15 0 -37 -9 -48 -20z"/>
<path d="M1481 7664 c-28 -35 -29 -99 -2 -114 11 -5 31 -10 45 -10 14 0 27 -4
31 -9 6 -11 -29 -34 -38 -24 -3 3 -18 2 -32 -1 -21 -5 -26 -12 -23 -34 3 -23
8 -27 39 -30 30 -3 41 2 62 28 15 17 30 38 35 46 5 9 22 18 38 20 58 10 169
11 181 1 7 -5 21 -6 30 -2 26 11 165 13 186 3 32 -16 78 1 92 35 25 60 -4 117
-61 117 -33 0 -66 -29 -79 -71 -12 -38 -75 -20 -75 22 0 22 -5 29 -19 29 -15
0 -21 -8 -23 -32 -2 -25 -8 -33 -23 -33 -14 0 -21 8 -25 30 -7 42 -35 44 -46
3 -8 -26 -15 -33 -34 -33 -21 0 -26 5 -28 33 -2 23 -8 32 -22 32 -14 0 -20 -9
-22 -32 -3 -29 -7 -33 -35 -36 -27 -3 -33 0 -33 16 0 33 -38 72 -70 72 -19 0
-36 -9 -49 -26z"/>
<path d="M10850 7525 c-14 -15 -49 -41 -78 -58 -49 -30 -52 -34 -46 -62 4 -16
13 -40 21 -52 16 -24 10 -43 -12 -43 -8 0 -19 17 -25 40 -13 49 -20 53 -59 34
-25 -13 -31 -21 -31 -49 0 -42 32 -70 61 -52 13 8 24 8 42 -2 20 -11 28 -11
46 0 17 11 25 11 42 1 12 -8 29 -10 42 -5 12 4 33 8 46 8 49 0 54 75 6 97 -32
14 -55 -4 -55 -43 0 -59 -30 -48 -70 26 -24 46 -25 48 -5 59 44 25 107 93 104
110 -4 15 -7 14 -29 -9z"/>
<path d="M11204 7465 c-4 -9 -2 -28 4 -43 6 -15 14 -46 17 -69 5 -34 4 -43 -8
-43 -8 0 -18 12 -21 26 -8 30 -30 27 -34 -4 -5 -30 -15 -28 -30 7 -22 50 -93
47 -112 -5 -20 -53 9 -124 46 -110 14 5 13 9 -5 32 -12 15 -21 34 -21 43 1 13
3 12 16 -4 13 -17 27 -20 100 -21 46 -1 87 2 89 7 3 4 19 2 35 -4 23 -9 35 -9
50 1 24 15 55 15 81 1 29 -15 51 6 47 44 -4 38 -28 49 -28 13 0 -16 -6 -26
-15 -26 -10 0 -15 11 -15 35 0 32 2 35 30 35 20 0 30 5 30 15 0 17 -45 21 -55
5 -3 -5 -18 -7 -33 -4 -31 6 -96 -29 -89 -49 2 -7 14 -17 27 -24 20 -10 22
-13 8 -18 -28 -11 -55 12 -62 52 -11 62 -30 123 -38 123 -5 0 -11 -7 -14 -15z"/>
<path d="M11829 7093 c-8 -9 -39 -32 -69 -51 -30 -20 -58 -40 -61 -45 -4 -5 4
-30 17 -55 14 -26 22 -52 20 -59 -9 -23 -33 -14 -46 17 -14 34 -35 35 -34 2 0
-17 -2 -19 -13 -11 -7 6 -13 18 -13 25 0 23 -18 16 -32 -13 -12 -25 -19 -28
-69 -31 -41 -2 -59 1 -69 13 -11 13 -8 15 19 15 54 0 36 31 -20 32 -49 2 -64
-37 -29 -72 16 -16 33 -20 81 -20 33 0 69 5 80 11 12 6 28 7 37 3 29 -13 96
-14 119 -2 17 8 26 8 38 -2 10 -8 24 -10 42 -4 16 4 39 8 53 8 21 1 25 6 28
38 2 28 -2 40 -19 52 -27 18 -59 5 -59 -24 0 -24 -10 -50 -20 -50 -5 0 -25 23
-45 52 l-37 51 28 21 c54 39 104 88 104 102 0 19 -15 18 -31 -3z"/>
<path d="M10686 7041 c-3 -5 1 -31 9 -57 20 -65 20 -114 0 -114 -8 0 -15 4
-15 10 0 5 -18 28 -40 51 -49 50 -80 48 -80 -7 0 -38 16 -46 28 -13 7 19 9 19
22 5 11 -14 10 -19 -6 -31 -31 -23 -50 -17 -84 25 -17 22 -38 40 -47 40 -8 0
-22 -18 -31 -40 -9 -22 -20 -40 -24 -40 -3 0 -12 16 -18 35 -12 36 -44 53 -75
41 -17 -6 -20 -62 -5 -86 6 -9 5 -17 -3 -22 -9 -6 -8 -10 3 -18 24 -15 68 -12
78 7 8 14 25 17 93 16 55 0 94 5 113 14 26 13 32 13 62 -3 62 -34 81 7 63 136
-8 53 -28 76 -43 51z"/>
<path d="M11080 7029 c0 -12 7 -48 16 -81 18 -71 6 -100 -21 -48 -13 24 -19
29 -30 20 -7 -6 -11 -21 -8 -33 4 -18 -2 -15 -29 16 -56 63 -128 43 -128 -36
0 -30 28 -87 42 -87 17 0 19 30 4 52 -23 32 -21 60 2 31 15 -20 26 -22 105
-21 48 1 90 5 93 9 3 5 14 3 24 -3 15 -10 27 -9 55 1 29 10 42 10 66 1 39 -16
61 1 57 44 -4 39 -22 41 -26 3 -5 -40 -26 -28 -30 16 -3 34 -1 36 30 39 18 2
32 8 31 13 -3 15 -42 18 -58 5 -8 -7 -22 -10 -30 -6 -19 7 -66 -10 -82 -30
-15 -21 -6 -44 18 -44 10 0 19 -4 19 -10 0 -14 -33 -13 -48 2 -6 6 -20 47 -29
90 -11 47 -23 78 -30 78 -7 0 -13 -9 -13 -21z"/>
<path d="M6635 6679 c-9 -14 3 -59 15 -59 6 0 10 -7 10 -16 0 -11 -6 -14 -20
-9 -12 4 -39 4 -61 0 -55 -9 -75 -47 -54 -100 18 -41 37 -52 68 -37 20 10 18
11 -15 11 -32 1 -37 4 -43 32 -5 24 -2 36 16 55 27 29 54 30 97 4 37 -23 40
-36 11 -45 -18 -6 -20 -12 -15 -40 7 -37 1 -45 -45 -50 -83 -11 -103 -102 -32
-146 31 -19 36 -20 50 -6 18 18 9 57 -13 57 -20 0 -29 27 -14 45 30 36 100 -6
100 -61 0 -57 -109 -131 -178 -119 -58 9 -72 22 -39 34 31 12 44 52 28 87 -13
29 -34 39 -58 28 -15 -6 -14 -8 7 -12 56 -9 66 -48 23 -82 -35 -27 -53 -24
-203 35 -63 25 -151 55 -195 66 -44 11 -97 30 -117 41 -48 27 -62 78 -22 78 8
0 14 -8 14 -17 0 -16 1 -16 17 -1 23 24 0 51 -39 46 -31 -5 -36 3 -13 22 38
31 1 53 -48 28 -49 -25 -57 -27 -72 -22 -9 4 -20 15 -26 25 -9 18 -10 18 -31
-3 -16 -16 -18 -23 -9 -26 7 -2 21 -13 30 -25 9 -11 28 -31 44 -45 33 -31 33
-35 5 -47 -12 -6 -25 -21 -28 -35 -7 -29 -44 -38 -150 -39 -74 -1 -110 16
-110 53 0 24 17 36 51 36 11 0 17 5 14 10 -11 17 -54 11 -65 -9 -20 -39 -12
-75 22 -95 l31 -19 -58 -30 c-55 -27 -60 -28 -71 -12 -18 24 -44 12 -44 -20 0
-33 -51 -65 -105 -65 -44 0 -65 -14 -65 -41 0 -9 -7 -20 -16 -23 -9 -3 -91 -6
-183 -6 l-168 0 -38 30 c-20 16 -45 32 -54 35 -19 6 -151 -51 -151 -65 0 -9
120 -70 137 -70 5 0 30 14 55 30 l46 30 453 -3 c250 -2 468 -7 484 -11 61 -16
62 -16 35 -36 -29 -22 -17 -44 21 -38 21 3 23 7 21 46 -3 38 -2 42 20 42 14 0
35 -13 50 -30 14 -16 34 -30 45 -30 15 1 13 5 -9 23 -16 13 -28 26 -28 30 0 4
23 7 50 7 55 0 62 -9 28 -33 -23 -16 -23 -16 -2 -16 11 -1 31 10 44 24 l23 25
298 0 c258 0 298 -2 310 -16 10 -12 10 -22 2 -44 -9 -24 -8 -32 6 -44 22 -20
65 -21 81 -1 7 9 9 26 5 45 -13 60 -13 60 318 60 l301 0 27 -26 c38 -36 90
-37 127 -1 15 15 38 27 51 27 21 0 22 -3 16 -39 -7 -45 3 -56 43 -46 l27 7
-23 19 c-59 47 -15 52 511 56 l458 3 32 -24 c53 -39 69 -40 140 -5 36 18 64
36 61 40 -2 4 -33 22 -69 39 -70 34 -69 34 -142 -16 -35 -23 -42 -24 -207 -24
-177 0 -196 4 -196 41 0 20 -20 29 -61 29 -16 0 -48 9 -69 20 -33 17 -40 26
-40 50 0 34 -25 41 -45 14 -10 -15 -16 -14 -63 10 -47 24 -67 46 -42 46 19 0
50 40 49 63 -1 21 -1 20 -10 -4 -13 -35 -48 -49 -117 -48 -97 1 -135 11 -150
41 -7 15 -22 30 -33 33 -20 7 -19 9 13 44 33 35 78 96 78 105 0 2 -7 7 -16 10
-10 4 -23 -3 -36 -19 -19 -25 -48 -34 -48 -15 0 6 -11 10 -24 10 -14 0 -28 5
-31 10 -3 6 -15 10 -26 10 -24 0 -26 -35 -1 -49 14 -8 10 -10 -19 -11 -24 0
-39 -5 -43 -16 -10 -25 -7 -34 9 -34 8 0 15 5 15 10 0 6 7 10 15 10 22 0 19
-43 -5 -65 -10 -9 -75 -34 -143 -55 -69 -21 -173 -56 -232 -79 -120 -47 -155
-48 -180 -3 -13 25 -14 25 -15 5 0 -12 12 -30 27 -41 l26 -19 -36 -12 c-45
-15 -89 -4 -151 38 -41 28 -46 36 -46 70 0 62 67 106 100 66 15 -18 6 -45 -14
-45 -9 0 -20 -10 -27 -21 -9 -17 -8 -24 4 -36 13 -13 18 -13 46 1 85 45 66
134 -33 150 -37 7 -47 23 -33 53 11 26 8 33 -19 37 -29 4 -27 22 5 45 38 27
69 27 104 -2 26 -20 27 -24 16 -54 -9 -27 -16 -33 -41 -33 -17 0 -27 -4 -23
-10 21 -33 85 11 85 59 0 50 -30 76 -92 78 -29 0 -55 2 -57 2 -3 1 6 12 18 25
26 28 25 59 -3 64 -29 6 -96 -91 -96 -138 0 -31 -16 -16 -24 22 -10 49 -54
118 -76 118 -10 0 -22 -5 -25 -11z m-641 -389 c43 -13 39 -22 -17 -40 -27 -8
-45 -23 -59 -46 l-20 -34 -22 25 c-37 43 -122 24 -109 -26 4 -14 14 -19 40
-19 27 0 34 -4 31 -17 -5 -27 -50 -28 -73 -3 -41 45 -15 113 60 162 32 21 92
20 169 -2z m1698 -9 c26 -16 51 -39 57 -50 18 -32 13 -86 -8 -105 -24 -22 -75
-18 -79 6 -2 13 5 17 35 20 28 2 39 8 42 22 8 44 -66 61 -105 25 l-23 -21 -31
35 c-17 20 -44 39 -60 42 -46 10 -45 23 2 35 24 6 48 13 53 15 31 11 76 2 117
-24z m-2091 -15 c-24 -26 -21 -49 5 -39 12 4 13 -2 8 -36 -6 -35 -4 -41 11
-41 9 0 19 9 22 20 3 11 9 20 12 20 11 0 0 -64 -13 -72 -15 -10 -279 -9 -295
2 -10 6 -6 12 15 26 16 10 47 33 69 52 41 34 149 91 174 92 10 0 8 -7 -8 -24z
m2379 -10 c26 -13 76 -47 111 -75 34 -28 68 -51 73 -51 6 0 4 -5 -4 -10 -21
-13 -290 -12 -307 2 -7 6 -13 19 -13 30 0 16 3 17 21 7 30 -16 46 2 31 35 -10
22 -8 26 8 31 23 7 26 25 8 43 -21 21 20 14 72 -12z m-1729 -73 c70 -31 126
-60 123 -64 -6 -11 -266 -11 -283 0 -7 5 -10 14 -7 20 4 6 3 11 -2 11 -5 0
-12 -9 -15 -20 -4 -17 -13 -20 -64 -20 -32 0 -64 4 -72 9 -21 13 -16 59 10 87
56 59 135 53 310 -23z m1276 48 c60 -28 85 -89 46 -110 -24 -12 -424 -13 -443
-1 -10 7 -11 10 -2 10 7 0 63 23 124 51 155 71 207 80 275 50z"/>
<path d="M2156 6010 c-70 -59 -80 -63 -124 -50 -20 5 -56 10 -79 10 -39 0 -46
-4 -73 -42 -40 -57 -60 -78 -90 -91 -20 -8 -22 -11 -8 -14 24 -6 55 18 98 74
34 45 38 48 81 46 24 0 67 -4 95 -8 50 -7 52 -7 103 39 59 53 83 57 136 21 49
-34 88 -34 154 -1 65 33 88 30 153 -25 50 -42 71 -46 143 -28 61 15 89 6 116
-38 29 -48 65 -83 87 -84 9 0 37 0 62 1 58 2 91 -23 115 -87 19 -52 42 -83 60
-83 6 0 35 -7 64 -16 44 -13 55 -21 67 -49 8 -19 14 -51 14 -70 0 -53 13 -70
79 -106 69 -36 85 -64 70 -126 -15 -67 -11 -78 46 -134 61 -59 68 -88 40 -156
-22 -53 -19 -79 20 -137 19 -29 35 -63 35 -74 0 -12 -14 -45 -32 -74 -35 -57
-39 -98 -14 -149 21 -42 20 -61 -5 -93 -23 -29 -15 -34 19 -10 26 18 28 47 7
88 -8 16 -18 45 -21 66 -5 32 -1 45 35 96 23 32 41 66 41 74 0 9 -18 42 -40
75 -22 33 -40 68 -40 78 0 18 19 68 41 110 16 29 1 58 -57 114 -57 55 -65 79
-46 148 14 51 1 77 -58 113 -80 48 -88 59 -99 136 -6 38 -14 73 -20 79 -5 5
-40 18 -78 28 -75 21 -97 40 -113 99 -19 71 -37 83 -120 82 -81 0 -91 6 -150
91 -30 44 -62 52 -119 32 -73 -25 -95 -20 -156 35 -30 28 -61 50 -68 50 -19
-1 -94 -37 -101 -49 -12 -18 -54 -13 -113 15 -91 41 -101 41 -157 -6z"/>
<path d="M6530 5827 c-24 -12 -63 -40 -87 -62 -35 -31 -46 -49 -50 -80 -8 -61
7 -65 270 -65 211 0 297 -9 297 -30 0 -6 -120 -10 -309 -10 l-309 0 -32 40
c-37 47 -46 49 -53 13 -3 -18 1 -36 14 -52 37 -46 15 -88 -69 -134 -43 -24
-54 -26 -76 -16 -31 15 -32 20 -6 44 29 27 53 106 41 139 -6 14 -8 26 -5 26 4
0 1 7 -6 15 -19 23 -56 18 -74 -10 -25 -38 -21 -80 12 -104 l27 -20 -30 -25
c-40 -32 -100 -52 -117 -39 -7 6 -29 14 -48 17 -28 6 -22 0 32 -28 63 -32 100
-37 113 -15 3 4 24 -3 48 -17 23 -13 53 -24 65 -24 38 0 100 50 119 97 l18 43
340 0 c345 1 424 3 550 15 93 10 97 10 120 2 32 -10 45 6 52 63 5 43 3 52 -8
48 -8 -2 -15 -21 -17 -41 -4 -46 -32 -40 -33 7 0 17 -3 24 -6 16 -11 -28 -36
-50 -60 -50 -18 0 -23 5 -23 24 0 14 5 28 10 31 6 4 7 11 4 17 -4 5 -13 -3
-20 -19 -21 -41 -48 -54 -130 -60 -71 -6 -73 -5 -85 20 -24 53 -64 62 -279 63
-326 1 -333 3 -290 50 14 14 49 40 78 56 85 48 96 97 12 55z"/>
<path d="M7627 5783 c-15 -14 -5 -37 33 -80 46 -52 49 -71 18 -100 -55 -50
-111 -37 -126 29 l-10 43 -1 -48 c-2 -104 54 -139 133 -80 67 50 72 106 15
186 -40 56 -49 64 -62 50z"/>
<path d="M5650 5748 c0 -18 5 -50 11 -71 8 -31 7 -43 -4 -61 -17 -25 -86 -50
-111 -40 -22 8 -20 -9 2 -29 32 -29 87 -18 122 26 16 19 17 19 47 -12 34 -33
76 -41 115 -20 14 8 23 8 31 0 6 -6 32 -11 58 -11 38 0 51 5 63 22 30 43 10
164 -23 143 -16 -9 -13 -37 5 -63 24 -35 11 -54 -33 -50 -39 3 -40 5 -28 58 5
18 0 33 -12 49 -17 20 -23 22 -41 12 -27 -14 -52 -61 -52 -96 0 -49 -55 -22
-91 45 -7 14 -18 47 -24 74 -13 59 -35 74 -35 24z"/>
<path d="M7753 5733 c3 -27 9 -76 13 -111 7 -67 26 -92 71 -92 16 0 23 -6 23
-20 0 -12 7 -32 16 -45 33 -51 114 -22 114 41 0 18 8 23 53 29 99 16 195 20
223 11 26 -9 44 27 44 86 0 35 -2 39 -16 28 -8 -8 -14 -25 -12 -39 1 -14 -1
-27 -5 -28 -17 -7 -27 -2 -27 12 0 19 -9 19 -34 0 -11 -8 -28 -15 -38 -15 -16
0 -18 6 -13 38 6 34 5 35 -7 14 -23 -38 -55 -53 -127 -59 l-70 -6 6 54 c9 92
-34 151 -48 66 -3 -20 -14 -55 -24 -77 -15 -33 -23 -40 -46 -40 -37 0 -69 41
-69 89 0 55 -11 111 -22 111 -6 0 -8 -20 -5 -47z"/>
<path d="M5460 5671 c0 -17 5 -33 10 -36 6 -3 10 -17 10 -31 0 -21 -4 -24 -40
-24 -41 0 -73 21 -97 64 -6 10 -15 16 -22 12 -17 -11 -13 -55 8 -83 32 -40 3
-91 -74 -128 -50 -23 -55 -24 -89 -10 -54 23 -56 18 -6 -15 25 -16 55 -30 68
-30 38 0 102 50 124 97 20 42 22 43 67 43 53 0 62 5 79 43 16 38 15 78 -4 105
-21 30 -34 28 -34 -7z"/>
<path d="M7431 5657 c-43 -88 -10 -154 59 -117 17 9 40 58 40 86 0 18 -49 74
-65 74 -7 0 -23 -19 -34 -43z"/>
<path d="M2433 5549 c4 -28 18 -88 32 -134 29 -95 60 -131 105 -120 28 7 109
14 157 15 57 0 76 40 52 109 -28 81 -119 59 -119 -28 0 -22 -5 -43 -12 -47
-14 -9 -48 31 -48 57 0 20 -16 24 -39 10 -9 -6 -11 -18 -6 -40 9 -42 -11 -40
-29 3 -8 19 -22 77 -32 130 -17 90 -20 96 -42 96 -24 0 -25 -2 -19 -51z"/>
<path d="M1998 5447 c-58 -47 -13 -157 64 -157 69 0 94 96 39 151 -35 35 -66
36 -103 6z"/>
<path d="M6714 5385 c-14 -14 -33 -25 -42 -26 -10 -1 -7 -4 8 -8 29 -8 38 -42
17 -62 -12 -11 -11 -17 2 -41 14 -25 14 -29 1 -38 -23 -15 -32 -13 -90 27 -51
35 -60 37 -126 36 -62 -1 -82 -7 -179 -53 -204 -96 -293 -109 -355 -52 -39 37
-46 67 -21 89 12 10 21 23 21 30 0 17 36 35 62 31 12 -2 29 -16 38 -32 17 -31
40 -46 40 -26 0 7 -9 25 -21 41 -30 42 -90 41 -142 -2 -29 -24 -41 -28 -51
-20 -14 12 -11 46 6 67 12 16 -12 24 -51 15 l-33 -6 21 -19 c28 -25 27 -36 -4
-36 -26 0 -76 -19 -86 -33 -4 -5 -10 -4 -13 2 -6 9 -66 17 -66 8 0 -1 4 -17 9
-34 10 -36 0 -51 -19 -28 -19 23 -32 6 -25 -32 5 -30 4 -35 -10 -30 -10 4 -18
0 -22 -10 -4 -9 -1 -19 5 -21 17 -5 15 -22 -2 -22 -23 0 -126 58 -170 96 -67
58 -94 72 -146 76 -30 3 -35 0 -38 -21 -5 -31 9 -43 52 -47 56 -4 110 -35 114
-64 5 -37 18 -46 47 -30 23 12 31 11 78 -12 l52 -25 -33 -17 c-30 -16 -33 -21
-30 -58 3 -47 23 -64 61 -54 20 5 27 12 26 29 -1 17 -2 18 -6 4 -7 -29 -67
-19 -71 11 -2 13 4 32 14 43 19 21 52 23 168 12 63 -6 69 -8 78 -35 5 -15 13
-28 16 -28 4 0 13 -4 21 -9 12 -8 9 -15 -15 -40 -16 -16 -36 -39 -45 -49 -9
-11 -22 -21 -30 -24 -9 -3 -7 -10 9 -26 26 -26 32 -27 32 -8 0 7 11 21 24 29
21 14 25 14 30 2 3 -8 13 -15 22 -15 10 0 25 -7 35 -16 20 -18 49 -12 49 9 0
8 -7 20 -15 27 -23 19 -18 30 13 24 34 -7 63 19 44 38 -9 9 -15 8 -25 -6 -12
-16 -14 -16 -26 -2 -7 9 -11 22 -8 30 10 26 80 62 167 86 47 12 135 42 197 66
150 59 203 57 226 -6 4 -10 6 -7 6 8 1 23 -31 62 -51 62 -8 0 -5 5 4 11 23 13
96 14 129 1 48 -19 99 -72 99 -102 0 -56 -65 -101 -98 -68 -19 19 -14 38 13
48 28 11 33 41 11 59 -11 9 -20 9 -35 2 -28 -15 -61 -60 -61 -83 0 -27 54 -78
82 -78 13 0 33 -7 44 -15 18 -14 18 -16 1 -26 -13 -8 -15 -14 -7 -30 6 -10 17
-19 25 -19 8 0 15 -4 15 -9 0 -18 -53 -51 -81 -51 -35 0 -72 44 -66 78 5 28
-8 16 -18 -16 -5 -17 1 -29 25 -53 29 -29 35 -31 81 -26 46 6 49 5 39 -13 -6
-10 -15 -22 -20 -25 -16 -10 -11 -52 7 -59 9 -4 22 -1 29 6 23 23 64 111 64
134 0 13 5 24 10 24 6 0 10 -8 10 -17 1 -25 34 -93 63 -128 21 -25 27 -28 41
-16 22 18 20 40 -6 68 -24 25 -19 40 8 25 21 -12 80 1 105 24 23 21 25 71 3
102 -15 22 -74 32 -74 12 0 -5 11 -10 24 -10 27 0 56 -24 56 -46 0 -26 -47
-64 -78 -64 -29 0 -82 33 -82 51 0 5 9 9 20 9 25 0 36 25 20 45 -17 21 1 41
46 50 47 8 74 37 74 79 0 27 -7 39 -35 60 -28 22 -38 25 -55 16 -28 -15 -25
-31 12 -61 28 -23 30 -29 19 -43 -7 -9 -24 -16 -37 -16 -24 0 -64 31 -64 49 0
5 -3 16 -6 24 -7 18 48 82 87 103 31 15 134 19 143 5 3 -5 -5 -16 -19 -25 -14
-9 -25 -23 -25 -31 0 -12 5 -10 20 5 30 30 82 25 200 -21 58 -23 137 -50 175
-61 154 -42 195 -64 195 -105 0 -24 -18 -31 -37 -12 -8 8 -13 8 -18 -1 -10
-16 14 -40 41 -40 27 0 29 -3 12 -30 -19 -29 4 -50 30 -27 10 9 28 17 40 17
11 0 22 7 24 16 2 13 10 10 37 -15 19 -18 40 -30 48 -27 19 8 16 24 -7 36 -11
6 -20 19 -20 29 0 10 -16 33 -37 51 -34 32 -35 34 -15 41 11 4 28 21 36 37 15
29 19 30 106 37 103 8 147 -3 156 -41 8 -33 -2 -44 -42 -44 -21 0 -33 -4 -29
-10 9 -14 58 -13 73 2 7 7 12 27 12 45 0 27 -6 37 -30 51 -16 9 -30 20 -30 23
0 7 101 59 113 59 4 0 7 -7 7 -15 0 -8 9 -15 20 -15 16 0 20 7 20 31 0 26 6
33 46 51 26 11 63 21 83 22 33 1 36 4 39 34 3 31 3 32 -38 32 -42 0 -92 -27
-163 -90 -54 -47 -197 -113 -197 -90 0 4 9 10 20 13 21 5 37 33 26 45 -4 3
-16 1 -26 -6 -30 -19 -33 -14 -11 14 23 29 27 59 10 70 -6 3 -16 1 -22 -5 -19
-19 -27 -12 -27 24 0 31 -3 35 -25 35 -17 0 -25 -6 -25 -17 -1 -16 -2 -16 -13
-3 -16 20 -62 40 -92 40 -33 0 -31 10 8 38 l32 22 -58 0 -57 0 16 -25 c33 -51
-13 -76 -56 -30 -19 20 -33 25 -69 24 -39 0 -50 -5 -69 -29 -25 -31 -22 -60 4
-39 8 6 14 18 14 25 0 24 46 39 75 26 14 -6 25 -17 25 -24 0 -7 9 -19 20 -26
51 -32 -3 -115 -84 -127 -50 -8 -104 5 -195 47 -228 104 -297 114 -397 54 -65
-40 -76 -42 -92 -23 -9 10 -7 19 4 35 13 19 13 24 -2 48 -14 20 -15 30 -6 44
9 15 7 23 -13 44 -30 32 -39 32 -71 1z m-885 -124 c25 -16 6 -38 -28 -33 -29
4 -31 2 -31 -26 0 -18 6 -32 16 -36 31 -12 71 -6 89 14 23 25 28 25 40 -1 11
-22 40 -42 90 -60 l30 -11 -35 -14 c-88 -38 -167 -26 -225 32 -30 30 -33 38
-28 71 9 61 44 88 82 64z m1911 -11 c34 -34 26 -79 -20 -128 -22 -23 -52 -45
-66 -48 -29 -8 -108 2 -155 18 -30 10 -31 12 -14 25 11 7 29 13 40 13 23 0 68
36 77 61 4 11 11 9 31 -9 18 -17 34 -23 57 -20 64 6 63 68 -1 68 -18 0 -29 5
-29 14 0 30 52 34 80 6z"/>
<path d="M4673 5302 c-29 -14 -53 -29 -53 -33 0 -13 111 -59 140 -59 15 0 39
9 53 20 14 11 35 24 47 28 19 7 17 11 -28 40 -60 39 -90 39 -159 4z"/>
<path d="M8685 5305 c-16 -14 -39 -25 -50 -25 -12 0 0 -12 35 -35 30 -19 67
-35 81 -35 28 0 139 47 139 58 -1 14 -116 63 -145 62 -16 0 -43 -12 -60 -25z"/>
<path d="M1983 4942 c-13 -8 -6 -100 12 -162 17 -61 17 -90 0 -96 -23 -9 -47
18 -54 63 -5 32 -10 38 -34 41 l-27 3 6 -55 c8 -70 -7 -74 -38 -10 -19 37 -26
44 -43 38 -11 -3 -33 -6 -50 -5 -16 0 -33 -5 -37 -12 -6 -9 -10 -9 -17 1 -4 8
-19 12 -32 10 -21 -3 -24 -8 -22 -41 1 -20 -1 -37 -6 -37 -12 0 -38 32 -45 58
-6 16 -15 22 -37 22 -34 0 -36 -10 -13 -76 21 -61 14 -77 -30 -69 -38 8 -55
-7 -36 -30 8 -9 30 -15 55 -15 37 0 47 5 69 32 l25 33 138 0 c76 0 144 4 151
8 6 5 27 3 46 -4 29 -10 38 -10 57 3 21 13 26 13 51 -1 25 -14 30 -14 55 -1
22 13 29 24 31 57 3 34 -1 44 -24 62 -19 15 -36 20 -54 16 -25 -6 -27 -3 -38
47 -7 29 -13 69 -15 88 -2 35 -20 48 -44 32z"/>
<path d="M2522 4941 c-11 -6 -11 -19 -3 -57 41 -199 85 -272 152 -246 21 7 39
8 60 0 22 -7 33 -7 45 3 9 7 37 12 67 11 68 -3 162 30 162 55 0 10 -9 19 -20
21 -11 2 -34 23 -50 45 -53 73 -109 58 -107 -29 0 -50 -15 -55 -36 -11 -8 16
-21 27 -34 27 -18 0 -20 -4 -15 -40 4 -29 1 -40 -8 -40 -7 0 -20 18 -29 40
-16 41 -35 50 -54 27 -7 -8 -7 -18 -2 -27 6 -8 10 -23 10 -33 0 -14 -4 -16
-20 -7 -23 12 -70 169 -70 234 0 13 -7 27 -16 30 -19 7 -16 7 -32 -3z"/>
<path d="M3113 4934 c-6 -17 -1 -45 31 -174 16 -60 16 -66 0 -77 -12 -9 -22
-9 -41 0 -23 10 -24 12 -6 24 10 8 17 23 15 36 -7 45 -64 167 -78 167 -19 0
-18 -26 7 -101 14 -44 18 -77 14 -106 -6 -39 -4 -43 24 -57 38 -20 65 -20 96
0 21 14 25 24 25 63 0 74 -43 235 -63 239 -9 2 -20 -4 -24 -14z"/>
<path d="M2154 4926 c-14 -37 66 -286 92 -286 22 0 24 15 7 66 -9 27 -23 90
-32 139 -14 80 -19 90 -39 93 -13 2 -25 -3 -28 -12z"/>
<path d="M1330 4830 c-8 -95 12 -283 32 -304 4 -6 8 -22 8 -37 0 -15 9 -44 19
-66 11 -21 30 -63 44 -93 58 -128 174 -270 307 -374 182 -143 482 -229 718
-206 123 11 131 21 11 14 -80 -5 -190 2 -301 20 -99 15 -320 114 -407 181 -51
39 -188 181 -228 236 -114 154 -180 346 -193 554 -4 67 -8 100 -10 75z"/>
<path d="M4664 4468 c20 -125 20 -128 -2 -128 -15 0 -22 9 -27 30 -4 17 -11
30 -17 30 -5 0 -7 -12 -3 -30 6 -28 5 -30 -24 -30 -29 0 -31 3 -31 34 0 19 -7
39 -16 47 -14 11 -18 10 -30 -6 -21 -28 -17 -54 9 -65 20 -8 19 -9 -9 -9 -29
-1 -32 2 -38 38 -6 38 -36 80 -36 50 0 -8 7 -23 15 -33 8 -11 15 -29 15 -39 0
-17 -5 -19 -41 -14 -34 4 -40 3 -37 -11 3 -15 23 -17 157 -20 l153 -3 -8 63
c-4 35 -7 77 -6 94 1 21 -4 34 -14 38 -14 6 -16 1 -10 -36z"/>
<path d="M6988 4498 c-3 -7 -2 -22 2 -33 4 -11 10 -44 14 -72 7 -53 7 -53 -21
-53 -16 0 -43 12 -63 28 -45 37 -66 44 -80 27 -9 -10 -6 -15 12 -21 13 -3 32
-13 43 -20 18 -13 14 -14 -33 -14 -47 0 -53 3 -62 26 -6 14 -14 22 -20 19 -7
-4 -7 -12 0 -25 17 -32 11 -57 -22 -85 -25 -21 -38 -25 -62 -21 -22 4 -27 3
-16 -4 37 -24 120 8 120 46 0 11 22 14 116 14 l116 0 -8 43 c-4 23 -8 64 -9
90 -2 48 -18 82 -27 55z"/>
<path d="M5435 4473 c4 -16 10 -52 14 -80 7 -51 7 -53 -16 -53 -18 0 -23 5
-23 25 0 14 -5 25 -10 25 -6 0 -8 -11 -4 -25 8 -31 -12 -34 -22 -3 l-7 23 -8
-23 c-11 -28 -34 -28 -53 0 l-16 22 0 -22 c0 -37 -36 -26 -85 25 -47 48 -47
56 3 69 12 3 22 12 22 20 0 18 -7 17 -50 -4 -44 -22 -55 -67 -18 -81 13 -5 32
-18 42 -30 l19 -21 -46 0 c-26 0 -47 4 -47 8 0 5 -7 17 -16 28 -14 18 -15 17
-9 -19 9 -55 -2 -76 -48 -98 l-42 -19 32 0 c24 0 38 8 61 35 l29 36 168 1 168
0 -7 52 c-3 28 -6 70 -6 94 0 32 -4 42 -16 42 -13 0 -15 -6 -9 -27z"/>
<path d="M5974 4479 c3 -13 9 -50 13 -81 5 -49 3 -58 -10 -58 -9 0 -19 11 -23
25 -11 43 -51 42 -119 -4 -38 -26 -55 -26 -55 -2 0 11 -5 23 -11 26 -7 5 -8
-7 -4 -39 7 -46 7 -46 -30 -62 -55 -22 -91 -8 -88 36 1 23 -1 29 -8 19 -13
-21 -11 -65 4 -76 38 -30 119 -14 132 26 6 20 13 21 121 21 l115 0 -5 93 c-4
76 -8 93 -22 96 -13 2 -16 -2 -10 -20z"/>
<path d="M8975 4473 c-57 -30 -61 -65 -10 -88 19 -9 39 -23 46 -31 10 -12 3
-14 -40 -14 -46 0 -51 2 -51 23 0 12 -4 28 -9 36 -13 21 -24 -5 -11 -28 15
-28 13 -31 -18 -31 -21 0 -32 7 -40 25 -15 32 -29 32 -44 -1 -11 -23 -10 -29
12 -46 l25 -20 -29 -25 c-19 -16 -37 -23 -52 -20 -13 2 -21 0 -18 -4 6 -10 45
-12 69 -3 8 4 22 19 31 35 14 29 15 29 109 29 61 0 95 4 95 11 0 19 -21 49
-57 83 l-37 33 37 12 c20 7 37 19 37 27 0 18 -7 17 -45 -3z"/>
<path d="M6027 4428 c3 -29 8 -66 12 -83 l7 -30 137 -3 137 -3 0 45 c0 25 -5
48 -11 52 -9 5 -10 -3 -5 -30 l7 -36 -39 0 c-27 0 -45 7 -58 21 -30 34 -67 49
-88 37 -16 -9 -13 -12 23 -29 23 -10 41 -20 41 -24 0 -3 -29 -5 -65 -5 -73 0
-70 -3 -80 83 -4 31 -10 57 -15 57 -5 0 -7 -24 -3 -52z"/>
<path d="M9517 4434 c-3 -4 3 -18 13 -32 11 -13 20 -34 20 -44 0 -17 -6 -20
-40 -16 -32 3 -40 0 -38 -12 3 -13 29 -15 161 -18 l157 -3 0 30 c0 36 -9 61
-22 61 -6 0 -7 -7 -4 -15 3 -8 9 -22 12 -31 6 -13 0 -15 -27 -12 -29 2 -34 7
-37 31 -2 15 -8 27 -13 27 -7 0 -8 -12 -4 -30 6 -28 5 -30 -24 -30 -27 0 -31
3 -31 28 0 16 -7 37 -15 48 -15 19 -15 19 -30 0 -22 -28 -18 -55 8 -66 20 -8
19 -9 -10 -9 -27 -1 -33 3 -33 19 0 19 -26 80 -34 80 -1 0 -6 -3 -9 -6z"/>
<path d="M7493 4373 c9 -32 9 -38 8 -61 -1 -29 -57 -64 -91 -57 -19 4 -21 3
-10 -5 38 -25 106 3 122 50 3 11 27 14 101 12 53 0 99 3 102 9 4 5 13 5 25 -1
45 -24 61 -6 38 45 -14 31 -16 31 -52 0 -37 -32 -56 -32 -56 0 0 14 -5 25 -10
25 -6 0 -8 -11 -4 -25 8 -31 -13 -34 -25 -3 l-8 22 -5 -22 c-8 -28 -32 -28
-51 -2 l-14 21 -6 -21 c-7 -28 -34 -25 -41 5 -4 14 -11 25 -17 25 -6 0 -9 -8
-6 -17z"/>
<path d="M2565 4310 l-100 -5 -3 -28 c-3 -27 -2 -29 26 -22 18 3 33 2 37 -4 3
-6 -3 -48 -14 -94 -11 -45 -23 -99 -27 -119 -6 -37 -5 -38 24 -38 24 0 31 5
35 28 6 28 30 132 44 192 7 30 14 36 42 40 36 5 63 34 46 47 -6 5 -55 6 -110
3z"/>
<path d="M2155 4298 c-2 -7 -9 -33 -15 -58 -22 -91 -28 -115 -33 -136 -3 -12
-10 -38 -16 -58 -11 -41 -2 -50 40 -44 19 2 24 10 27 42 6 67 18 88 50 85 34
-4 52 7 52 32 0 15 -7 19 -35 19 -38 0 -43 11 -23 55 11 23 15 25 60 19 l48
-7 0 32 0 31 -75 0 c-52 0 -77 -4 -80 -12z"/>
<path d="M2304 4192 c-32 -25 -44 -55 -44 -106 0 -57 27 -86 81 -86 29 0 43 7
64 32 18 22 25 38 21 54 -3 12 -2 34 3 48 8 19 6 30 -10 50 -25 31 -82 35
-115 8z"/>
<path d="M9525 3890 c-3 -5 -2 -18 3 -27 5 -10 12 -37 16 -60 5 -38 3 -44 -18
-58 -14 -9 -35 -15 -48 -13 -21 3 -24 10 -32 76 -4 41 -12 70 -16 65 -10 -11
7 -144 20 -157 7 -7 74 -11 176 -11 l165 0 -7 90 c-6 82 -15 117 -29 103 -3
-2 -1 -29 5 -58 5 -29 10 -66 10 -82 0 -25 -4 -29 -22 -26 -19 2 -24 12 -30
53 -4 28 -5 62 -2 76 3 18 0 28 -10 32 -17 7 -26 -12 -16 -33 4 -8 10 -41 13
-73 5 -55 5 -58 -16 -55 -13 2 -23 13 -27 28 -5 20 -12 25 -36 24 -16 0 -37
-4 -46 -8 -15 -7 -18 -3 -20 25 -1 19 -1 46 0 60 2 27 -22 47 -33 29z"/>
<path d="M2914 3752 c-6 -4 -25 -29 -43 -55 -45 -66 -66 -74 -141 -53 -61 17
-62 17 -96 -6 -19 -13 -34 -29 -34 -35 0 -17 5 -16 42 3 28 14 40 15 97 4 83
-15 113 -11 126 18 5 12 15 22 22 22 7 0 13 6 13 14 0 14 78 66 100 66 6 0 15
-11 20 -25 12 -32 30 -32 30 0 0 14 7 28 15 31 8 4 15 10 15 15 0 11 -150 12
-166 1z"/>
<path d="M9144 3438 c20 -126 20 -128 -3 -128 -13 0 -26 10 -33 25 -6 14 -15
25 -19 25 -4 0 -20 -11 -35 -25 -15 -14 -33 -25 -40 -25 -8 0 -14 11 -14 25 0
14 -5 25 -10 25 -6 0 -8 -11 -4 -25 8 -31 -9 -33 -24 -2 l-11 22 0 -22 c-1
-30 -35 -30 -55 -1 l-16 22 0 -22 c0 -21 -4 -23 -37 -20 l-38 3 -9 73 c-4 41
-12 70 -16 65 -9 -8 4 -146 15 -163 7 -12 237 -10 253 3 9 7 16 7 24 -1 7 -7
34 -12 61 -12 l49 0 -8 63 c-4 34 -7 76 -6 93 1 21 -4 34 -14 38 -14 6 -16 1
-10 -36z"/>
<path d="M6004 3448 c3 -13 9 -49 13 -80 5 -54 4 -58 -14 -58 -22 0 -116 87
-108 100 3 5 19 11 35 15 17 4 30 13 30 21 0 17 -3 17 -45 0 -34 -15 -61 -49
-50 -66 3 -5 21 -17 40 -26 53 -25 53 -44 0 -44 -40 0 -44 2 -50 30 -10 45
-29 51 -21 6 7 -35 6 -36 -24 -36 -23 0 -30 4 -30 19 0 21 -17 37 -28 27 -3
-4 -1 -16 6 -26 18 -30 14 -54 -13 -80 -18 -17 -36 -24 -62 -23 -25 1 -32 -2
-22 -8 36 -23 119 10 119 47 0 11 24 14 131 14 l132 0 -8 68 c-4 37 -7 79 -6
95 1 19 -4 27 -15 27 -12 0 -15 -6 -10 -22z"/>
<path d="M7674 3448 c3 -13 9 -49 13 -81 l6 -58 -34 3 c-32 3 -34 6 -44 55
l-10 52 -32 -39 c-43 -50 -43 -64 1 -57 30 5 35 2 40 -19 6 -23 11 -24 77 -24
84 0 159 17 159 36 0 11 -6 11 -27 3 -33 -12 -73 -4 -73 16 0 11 11 15 41 15
36 0 40 2 29 15 -16 19 -64 19 -80 0 -7 -8 -10 -24 -7 -35 3 -12 0 -20 -8 -20
-14 0 -25 51 -25 118 0 32 -4 42 -16 42 -12 0 -15 -6 -10 -22z"/>
<path d="M6506 3452 c-3 -5 -1 -38 5 -73 17 -109 -3 -99 195 -99 132 0 174 3
174 13 0 12 -86 87 -100 87 -4 0 -13 -6 -19 -14 -10 -12 -8 -16 11 -22 13 -3
32 -13 43 -20 17 -13 14 -14 -37 -14 -55 0 -57 1 -63 30 -4 17 -11 30 -17 30
-5 0 -7 -12 -3 -30 6 -28 5 -30 -24 -30 -28 0 -31 3 -31 29 0 17 -5 33 -11 37
-9 5 -10 -4 -5 -30 l7 -37 -48 3 -48 3 -7 68 c-7 70 -12 86 -22 69z"/>
<path d="M8248 3455 c-7 -12 6 -147 16 -164 4 -6 20 -11 37 -11 21 0 29 -5 29
-18 0 -23 19 -42 41 -42 21 0 30 22 18 41 -7 12 11 15 108 19 82 4 118 9 121
18 2 7 -17 33 -42 59 -25 25 -43 49 -41 53 3 5 19 11 35 15 17 4 30 13 30 21
0 18 -7 17 -50 -4 -51 -25 -54 -65 -6 -87 53 -26 54 -45 2 -45 -40 0 -44 2
-49 30 -4 17 -11 30 -18 30 -7 0 -8 -11 -4 -30 l7 -30 -54 0 c-56 0 -89 12
-69 24 6 4 11 2 11 -4 0 -6 5 -8 10 -5 16 10 12 45 -5 45 -8 0 -21 -13 -30
-30 -12 -23 -22 -30 -45 -30 -31 0 -35 11 -42 120 -2 19 -6 30 -10 25z"/>
<path d="M7394 3396 c-11 -29 1 -61 24 -64 47 -7 19 -22 -42 -22 -39 0 -68 -5
-74 -13 -20 -24 -17 -40 8 -48 19 -5 13 -7 -25 -8 -62 -1 -80 9 -72 40 6 23 5
23 -8 5 -20 -26 -19 -39 3 -59 24 -22 105 -23 126 -1 24 23 19 42 -11 47 -16
2 7 5 50 6 l77 1 0 46 c0 25 -5 54 -10 65 -12 22 -38 25 -46 5z"/>
<path d="M5061 3340 c-52 -35 -75 -38 -94 -10 l-14 21 -6 -21 c-7 -28 -35 -25
-49 5 -6 14 -15 25 -19 25 -4 0 -21 -11 -37 -25 -38 -31 -48 -31 -56 0 -4 14
-11 23 -16 20 -5 -3 -5 -18 0 -36 12 -41 4 -56 -34 -69 -43 -14 -83 1 -89 32
-3 18 -5 17 -6 -7 -2 -42 15 -55 71 -55 43 0 51 3 65 28 18 32 70 57 87 43 6
-5 75 -10 152 -10 l142 -1 4 25 c6 29 -16 65 -40 65 -9 0 -37 -14 -61 -30z"/>
<path d="M8286 3062 c-3 -5 -2 -23 3 -38 5 -16 12 -50 15 -76 5 -45 4 -48 -18
-48 -17 0 -26 7 -30 25 -4 14 -11 25 -17 25 -6 0 -24 -11 -41 -25 -38 -32 -45
-31 -53 5 -10 44 -28 50 -20 6 7 -35 6 -36 -24 -36 -26 0 -31 4 -31 25 0 14
-4 25 -9 25 -4 0 -6 -12 -4 -27 l5 -28 -21 25 -21 25 0 -22 c0 -16 -6 -23 -19
-23 -10 0 -26 10 -34 23 l-16 22 0 -22 c-1 -33 -39 -31 -47 2 -3 14 -9 25 -13
25 -17 0 -19 -14 -5 -41 12 -23 12 -32 2 -49 -17 -26 -71 -52 -95 -44 -15 5
-15 4 -3 -5 29 -21 62 -12 97 26 l35 37 126 -2 c77 -1 130 2 138 9 9 7 19 7
34 -1 28 -15 106 -9 102 8 -1 7 -4 47 -6 88 -3 72 -16 108 -30 86z"/>
<path d="M8637 3043 c-5 -7 7 -99 18 -150 5 -23 7 -23 175 -23 129 0 170 3
170 13 0 12 -86 87 -99 87 -4 0 -16 -6 -26 -14 -18 -13 -17 -14 12 -20 18 -4
37 -14 44 -22 10 -12 4 -14 -40 -14 -46 0 -51 2 -51 23 0 12 -4 28 -9 36 -13
21 -24 -5 -11 -28 15 -28 13 -31 -19 -31 -24 0 -30 5 -34 30 -4 17 -11 30 -16
30 -6 0 -8 -13 -4 -31 l6 -30 -44 3 -44 3 -6 67 c-5 67 -12 88 -22 71z"/>
<path d="M4637 2973 c3 -38 10 -76 15 -85 10 -20 58 -24 75 -7 8 8 17 8 31 0
24 -13 278 -15 286 -3 6 10 -34 50 -77 77 -22 14 -30 15 -42 5 -13 -11 -10
-16 27 -34 l43 -20 -44 -4 c-57 -4 -71 2 -71 32 0 14 -5 28 -11 32 -9 5 -10
-3 -5 -30 7 -34 6 -36 -21 -36 -18 0 -35 9 -49 28 l-22 27 -29 -27 c-36 -35
-78 -37 -87 -5 -3 12 -6 43 -6 70 0 26 -4 47 -10 47 -5 0 -7 -27 -3 -67z"/>
<path d="M4331 3002 c0 -7 -14 -25 -31 -39 -42 -34 -40 -57 3 -50 27 4 35 1
43 -16 8 -20 18 -22 90 -25 83 -3 154 13 162 36 3 10 -3 11 -25 6 -47 -13 -67
-10 -71 9 -3 14 4 17 32 17 27 0 34 3 30 15 -8 21 -70 20 -82 -1 -5 -9 -7 -25
-5 -35 3 -11 0 -19 -6 -19 -6 0 -11 13 -11 29 0 17 -5 33 -11 37 -9 5 -10 -4
-5 -30 l7 -37 -48 3 -48 3 -11 55 c-7 30 -12 49 -13 42z"/>
<path d="M6994 2986 c-11 -28 0 -61 20 -61 11 0 21 -6 24 -13 3 -9 -14 -12
-61 -12 -47 0 -70 -5 -82 -16 -20 -21 -15 -37 16 -45 18 -5 12 -7 -23 -8 -60
-1 -78 6 -78 33 0 17 -2 18 -10 6 -26 -40 4 -70 69 -70 34 0 53 5 64 18 23 25
21 40 -5 45 -13 2 10 5 50 6 l72 1 0 39 c0 22 -4 51 -10 65 -10 28 -37 35 -46
12z"/>
<path d="M5004 2619 c3 -13 9 -50 13 -81 5 -54 4 -58 -15 -58 -15 0 -22 7 -24
25 -2 14 -7 25 -13 24 -11 -1 -11 -4 0 -31 11 -27 -56 -25 -73 2 -14 23 -35
26 -51 6 -10 -12 -8 -15 11 -19 21 -3 21 -5 -9 -16 -20 -8 -33 -20 -33 -31 0
-32 12 -80 21 -80 4 0 3 14 -2 32 -6 21 -5 36 2 43 5 5 63 12 127 15 64 3 122
8 129 13 6 4 14 3 18 -3 3 -6 48 -10 102 -10 l95 0 -8 53 c-5 28 -8 70 -9 91
0 24 -5 41 -14 44 -14 5 -13 -20 6 -125 5 -30 3 -33 -21 -33 -14 0 -25 3 -25
8 4 24 -3 52 -12 52 -7 0 -8 -11 -4 -30 l7 -30 -51 0 c-51 0 -61 6 -40 27 15
15 -25 36 -51 28 -20 -6 -28 -35 -10 -35 6 0 10 -4 10 -10 0 -5 -9 -10 -19
-10 -20 0 -21 5 -34 134 -1 11 -8 22 -16 24 -11 4 -12 -1 -7 -19z"/>
<path d="M5644 2618 c4 -13 11 -49 15 -80 l7 -58 -35 0 c-44 0 -85 -20 -89
-43 -3 -13 3 -17 23 -17 15 0 24 -4 20 -10 -10 -16 -92 -12 -109 5 -11 12 -13
22 -6 41 6 16 6 23 0 19 -5 -3 -12 -22 -16 -42 -9 -46 12 -63 73 -63 70 0 110
55 52 71 -13 4 23 8 81 9 114 2 151 9 158 28 3 9 -10 11 -45 10 -37 -2 -48 0
-48 12 0 10 12 16 38 18 32 3 36 6 26 18 -27 32 -97 5 -86 -35 3 -13 1 -21 -8
-21 -15 0 -32 111 -20 131 4 6 1 15 -6 20 -23 15 -32 10 -25 -13z"/>
<path d="M6464 2613 c4 -16 9 -49 13 -75 5 -44 4 -47 -20 -53 -49 -13 -62 -4
-65 45 -3 63 -12 95 -21 84 -7 -8 3 -109 15 -151 2 -10 39 -13 140 -13 l136 0
-7 88 c-7 80 -17 114 -30 100 -3 -2 -1 -29 5 -58 15 -80 13 -100 -10 -100 -13
0 -20 7 -20 20 0 31 -34 43 -69 25 -17 -8 -32 -15 -35 -15 -2 0 -4 27 -3 60 1
42 -2 61 -11 65 -23 8 -25 6 -18 -22z"/>
<path d="M8333 2609 c3 -19 9 -56 13 -82 l6 -48 -61 3 c-59 3 -73 9 -50 24 6
3 15 0 20 -7 6 -10 9 -6 9 14 0 36 -17 34 -38 -3 -12 -21 -25 -30 -43 -30 -23
0 -27 5 -33 38 -3 20 -6 52 -6 70 0 17 -4 32 -9 32 -11 0 -2 -128 11 -152 5
-10 19 -18 31 -18 15 0 27 -11 37 -33 8 -17 23 -33 33 -35 22 -4 34 25 18 49
-10 18 -7 19 45 19 l55 0 -7 58 c-4 31 -7 72 -8 91 -1 20 -7 36 -15 39 -11 4
-12 -3 -8 -29z"/>
<path d="M8965 2630 c-3 -5 -1 -19 5 -30 6 -11 10 -42 8 -68 -2 -39 -7 -48
-24 -50 -17 -2 -23 4 -27 27 -4 17 -11 31 -18 31 -7 0 -8 -11 -4 -30 7 -30 6
-30 -39 -30 l-45 0 -7 50 c-4 28 -10 50 -15 50 -5 0 -9 -5 -9 -11 0 -6 -11
-20 -25 -31 -14 -11 -25 -26 -25 -34 0 -20 27 -29 44 -15 10 8 15 5 24 -14 12
-25 12 -25 152 -25 l140 0 0 35 c0 45 -23 58 -69 39 -18 -8 -34 -14 -35 -14
-1 0 -1 27 -1 60 0 38 -4 61 -12 64 -7 3 -15 1 -18 -4z"/>
<path d="M9443 2609 c21 -122 21 -129 -5 -129 -14 0 -29 10 -39 26 l-16 26
-30 -26 c-34 -29 -53 -33 -53 -12 0 22 -24 38 -38 24 -18 -18 -14 -56 5 -67
17 -9 16 -11 -6 -35 -13 -14 -33 -27 -45 -30 -11 -2 -5 -3 14 -3 27 2 39 9 55
33 23 36 57 55 77 43 7 -5 37 -9 66 -9 l54 0 -8 53 c-5 28 -8 70 -9 91 0 24
-5 41 -14 44 -11 4 -12 -3 -8 -29z"/>
<path d="M7067 2553 c-12 -11 -8 -61 6 -66 6 -3 0 -6 -15 -6 -21 -1 -27 4 -30
24 -2 14 -7 24 -13 23 -5 -2 -9 -5 -8 -8 1 -3 5 -13 8 -22 6 -15 2 -18 -24
-18 -17 0 -31 4 -31 8 0 5 -7 17 -15 28 -14 17 -15 15 -9 -32 6 -47 4 -52 -21
-72 -15 -12 -39 -22 -54 -23 l-26 -1 25 -7 c32 -10 77 12 92 44 l11 25 194 0
193 0 0 38 c0 43 -14 73 -23 49 -3 -7 -1 -20 4 -28 15 -24 10 -29 -29 -29 -27
0 -48 8 -75 31 -22 18 -46 29 -59 27 -30 -4 -36 -28 -6 -28 13 0 32 -7 42 -15
18 -14 16 -15 -32 -15 -29 0 -52 3 -53 8 -6 61 -28 89 -52 65z"/>
<path d="M4984 2058 c3 -17 9 -56 13 -85 5 -49 4 -53 -16 -53 -15 0 -21 6 -21
23 0 12 -4 28 -9 36 -13 20 -24 -5 -12 -27 25 -47 -46 -44 -104 4 -32 26 -50
34 -65 29 -29 -9 -25 -19 15 -34 50 -18 43 -31 -15 -31 l-50 0 0 34 c0 19 -7
39 -16 47 -14 11 -18 10 -30 -6 -20 -26 -17 -41 9 -60 l22 -16 -30 3 c-23 2
-31 9 -33 28 -2 14 -8 30 -14 35 -7 7 -8 -2 -4 -27 7 -37 6 -38 -22 -38 -21 0
-32 7 -40 26 -7 14 -17 22 -22 19 -7 -4 -7 -12 0 -25 23 -42 2 -80 -58 -107
l-27 -11 26 -1 c30 -1 79 33 79 55 0 12 38 14 231 14 l231 0 -7 68 c-5 37 -7
79 -6 93 1 17 -5 29 -15 33 -14 5 -16 1 -10 -26z"/>
<path d="M5894 2059 c3 -18 9 -57 13 -86 5 -48 4 -53 -14 -53 -11 0 -25 11
-31 25 -14 31 -20 31 -56 0 -39 -33 -56 -32 -56 4 0 17 -5 33 -11 37 -9 5 -10
-4 -5 -30 l7 -37 -48 3 c-33 2 -48 8 -50 18 -1 8 -5 41 -8 74 -4 32 -10 54
-15 50 -10 -12 8 -145 23 -162 8 -10 29 -12 81 -8 92 7 92 7 155 0 l54 -6 -8
68 c-4 38 -8 82 -9 98 0 16 -7 31 -15 34 -11 4 -13 -3 -7 -29z"/>
<path d="M6284 2058 c3 -18 8 -57 12 -85 l7 -53 -47 0 c-34 0 -52 -6 -68 -22
l-22 -22 27 -11 c53 -22 -13 -36 -69 -15 -23 9 -26 14 -20 43 4 23 3 28 -4 17
-5 -8 -10 -30 -10 -48 0 -26 5 -34 28 -43 15 -6 43 -8 62 -5 54 9 82 60 38 69
-13 2 18 5 67 6 97 3 166 18 173 40 3 9 -2 11 -14 8 -61 -19 -74 -19 -80 -2
-9 22 14 37 44 30 17 -4 23 -2 20 7 -3 8 -21 13 -44 13 -37 0 -39 -2 -42 -32
-2 -18 -7 -33 -12 -33 -13 0 -22 36 -23 101 -1 40 -6 60 -15 64 -11 4 -13 -2
-8 -27z"/>
<path d="M7094 2058 c3 -18 8 -57 12 -85 6 -52 6 -53 -20 -53 -19 0 -26 5 -26
19 0 39 -34 48 -94 25 -14 -5 -16 3 -16 55 0 49 -3 61 -16 61 -13 0 -15 -6 -8
-27 4 -16 8 -48 8 -73 1 -39 -2 -45 -25 -54 -47 -16 -59 -3 -59 61 0 55 -12
95 -23 77 -7 -13 14 -147 25 -161 8 -9 49 -13 145 -13 l135 0 -8 63 c-4 34 -7
76 -6 93 1 21 -4 34 -14 38 -14 5 -15 1 -10 -26z"/>
<path d="M9254 2053 c19 -131 19 -133 -1 -133 -11 0 -24 11 -30 28 l-12 27 6
-27 c6 -34 -14 -38 -26 -6 l-8 22 -5 -22 c-8 -28 -32 -28 -51 -2 l-14 21 -6
-21 c-8 -31 -28 -24 -81 30 l-49 49 27 11 c15 5 32 10 37 10 5 0 9 7 9 16 0
11 -6 14 -22 9 -76 -23 -90 -68 -31 -100 54 -30 54 -45 -1 -45 -40 0 -48 3
-56 25 -5 14 -14 25 -20 25 -13 0 -13 -23 1 -37 31 -31 -38 -110 -85 -98 -20
5 -20 4 1 -6 32 -17 72 -3 91 31 19 33 3 31 267 34 l90 1 -2 30 c-1 17 -3 58
-5 92 -2 41 -8 65 -16 68 -11 4 -12 -4 -8 -32z"/>
<path d="M5333 1990 c-43 -50 -42 -64 0 -57 27 4 35 1 43 -16 7 -17 17 -21 39
-20 49 4 67 3 127 -3 48 -5 59 -3 64 10 8 22 -4 86 -17 86 -6 0 -7 -14 -3 -35
l6 -35 -50 0 c-49 0 -51 1 -49 27 2 22 -3 29 -22 31 -30 5 -52 -15 -31 -28 21
-13 -1 -33 -31 -28 -20 2 -25 12 -34 55 l-10 52 -32 -39z"/>
<path d="M8347 1947 l-58 -32 -18 22 c-18 22 -19 22 -24 3 -7 -28 -36 -25 -47
5 -13 33 -36 32 -45 -2 -5 -21 -2 -32 14 -44 l21 -17 -31 -26 c-21 -18 -38
-25 -53 -21 -17 5 -18 4 -6 -4 34 -24 86 2 102 51 3 8 43 11 131 9 l127 -2 0
33 c0 37 -15 58 -39 58 -9 -1 -42 -15 -74 -33z"/>
<path d="M6194 1507 c3 -13 8 -49 12 -80 6 -54 5 -57 -15 -57 -16 0 -21 6 -21
24 0 25 -16 43 -28 32 -3 -4 -1 -16 6 -26 17 -28 16 -30 -28 -30 -30 0 -48 7
-74 31 -22 19 -44 29 -57 27 -28 -4 -38 -28 -12 -28 10 -1 29 -7 43 -15 23
-14 21 -15 -45 -12 l-70 2 -5 63 c-3 34 -9 61 -15 60 -5 -2 -9 -10 -7 -18 1
-8 5 -33 8 -55 12 -94 -7 -85 179 -85 l165 0 -6 83 c-7 95 -9 107 -25 107 -7
0 -9 -9 -5 -23z"/>
<path d="M6903 1499 c3 -19 9 -55 13 -81 6 -47 6 -48 -20 -48 -21 0 -26 5 -26
24 0 14 -4 27 -9 31 -15 8 -25 -15 -12 -28 19 -19 12 -27 -23 -27 -33 0 -35 2
-38 38 -2 28 -7 37 -22 37 -26 0 -40 -40 -20 -60 14 -13 13 -15 -10 -15 -22 0
-26 5 -26 28 0 31 -24 71 -36 60 -4 -5 0 -16 9 -26 10 -10 17 -29 17 -41 0
-21 -4 -23 -35 -19 -29 3 -35 1 -35 -14 0 -17 12 -18 156 -18 l156 0 -8 63
c-4 34 -8 75 -8 91 -1 16 -7 31 -15 34 -11 4 -12 -3 -8 -29z"/>
<path d="M7413 1504 c3 -16 9 -53 12 -81 7 -51 6 -53 -17 -53 -20 0 -108 75
-108 93 0 3 16 11 35 17 19 6 35 18 35 26 0 18 -3 18 -50 -6 -38 -19 -57 -50
-45 -70 3 -5 12 -10 18 -10 7 0 26 -11 42 -25 l30 -24 -49 -1 c-37 0 -55 5
-72 21 -13 12 -30 19 -38 16 -23 -9 -20 -27 5 -27 11 0 17 -4 14 -10 -3 -5
-15 -10 -25 -10 -30 0 -39 -29 -24 -75 l13 -40 -5 41 c-7 52 -1 54 154 54
l114 0 -8 63 c-4 34 -8 75 -8 91 -1 16 -7 31 -15 34 -10 3 -12 -3 -8 -24z"/>
<path d="M4483 243 c225 -2 589 -2 810 0 221 1 38 2 -408 2 -445 0 -626 -1
-402 -2z"/>
<path d="M7618 243 c232 -2 612 -2 845 0 232 1 42 2 -423 2 -465 0 -655 -1
-422 -2z"/>
</g>
</svg>
